<svg width="19" height="20" viewBox="0 0 19 20" fill="none" xmlns="http://www.w3.org/2000/svg">
<path d="M7.99995 4.02965e-08C9.94251 0.000126694 11.8187 0.706882 13.2785 1.98843C14.7384 3.26999 15.6822 5.03882 15.934 6.965L18.184 10.504C18.332 10.737 18.302 11.084 17.959 11.232L16 12.07V15C16 15.5304 15.7892 16.0391 15.4142 16.4142C15.0391 16.7893 14.5304 17 14 17H12.001L12 20H2.99995V16.306C2.99995 15.126 2.56395 14.009 1.75495 13.001C0.812655 11.8245 0.221932 10.4056 0.0508456 8.908C-0.120241 7.41036 0.135272 5.89486 0.787944 4.53611C1.44062 3.17737 2.46389 2.03066 3.73986 1.22811C5.01583 0.425571 6.49258 -0.000151226 7.99995 4.02965e-08ZM7.99995 5C7.73474 5 7.48038 5.10536 7.29285 5.29289C7.10531 5.48043 6.99995 5.73478 6.99995 6V6.999L5.99995 7C5.73474 7 5.48038 7.10536 5.29285 7.29289C5.10531 7.48043 4.99995 7.73478 4.99995 8C4.99995 8.26522 5.10531 8.51957 5.29285 8.70711C5.48038 8.89464 5.73474 9 5.99995 9L6.99995 8.999V10C6.99995 10.2652 7.10531 10.5196 7.29285 10.7071C7.48038 10.8946 7.73474 11 7.99995 11C8.26517 11 8.51952 10.8946 8.70706 10.7071C8.8946 10.5196 8.99995 10.2652 8.99995 10V9H9.99995C10.2652 9 10.5195 8.89464 10.7071 8.70711C10.8946 8.51957 11 8.26522 11 8C11 7.73478 10.8946 7.48043 10.7071 7.29289C10.5195 7.10536 10.2652 7 9.99995 7H8.99995V6C8.99995 5.73478 8.8946 5.48043 8.70706 5.29289C8.51952 5.10536 8.26517 5 7.99995 5Z" fill="#8A8A8A"/>
</svg>
