<svg viewBox="0 0 54 54" xmlns="http://www.w3.org/2000/svg">
<path d="M26.8666 43C27.7999 43 28.5893 42.6773 29.2346 42.032C29.8799 41.3867 30.2017 40.5982 30.1999 39.6667C30.1999 38.7333 29.8781 37.944 29.2346 37.2987C28.591 36.6533 27.8017 36.3316 26.8666 36.3333C25.9333 36.3333 25.1448 36.656 24.5013 37.3013C23.8577 37.9467 23.535 38.7351 23.5333 39.6667C23.5333 40.6 23.8559 41.3893 24.5013 42.0347C25.1466 42.68 25.935 43.0018 26.8666 43ZM24.4666 32.7333H29.3999C29.3999 31.2667 29.567 30.1111 29.9013 29.2667C30.2355 28.4222 31.1795 27.2667 32.7333 25.8C33.8888 24.6445 34.7999 23.544 35.4666 22.4987C36.1333 21.4533 36.4666 20.1982 36.4666 18.7333C36.4666 16.2445 35.5555 14.3333 33.7333 13C31.911 11.6667 29.7555 11 27.2666 11C24.7333 11 22.6773 11.6667 21.0986 13C19.5199 14.3333 18.4204 15.9333 17.7999 17.8L22.1999 19.5333C22.4221 18.7333 22.9226 17.8667 23.7013 16.9333C24.4799 16 25.6684 15.5333 27.2666 15.5333C28.6888 15.5333 29.7555 15.9227 30.4666 16.7013C31.1777 17.48 31.5333 18.3351 31.5333 19.2667C31.5333 20.1556 31.2666 20.9893 30.7333 21.768C30.1999 22.5467 29.5333 23.2685 28.7333 23.9333C26.7777 25.6667 25.5777 26.9778 25.1333 27.8667C24.6888 28.7556 24.4666 30.3778 24.4666 32.7333ZM26.9999 53.6667C23.311 53.6667 19.8444 52.9662 16.5999 51.5653C13.3555 50.1645 10.5333 48.2649 8.13325 45.8667C5.73325 43.4667 3.8337 40.6445 2.43459 37.4C1.03547 34.1556 0.33503 30.6889 0.333252 27C0.333252 23.3111 1.0337 19.8445 2.43459 16.6C3.83547 13.3556 5.73503 10.5333 8.13325 8.13334C10.5333 5.73334 13.3555 3.83379 16.5999 2.43468C19.8444 1.03557 23.311 0.335121 26.9999 0.333344C30.6888 0.333344 34.1555 1.03379 37.3999 2.43468C40.6444 3.83557 43.4666 5.73512 45.8666 8.13334C48.2666 10.5333 50.167 13.3556 51.5679 16.6C52.9688 19.8445 53.6684 23.3111 53.6666 27C53.6666 30.6889 52.9661 34.1556 51.5653 37.4C50.1644 40.6445 48.2648 43.4667 45.8666 45.8667C43.4666 48.2667 40.6444 50.1671 37.3999 51.568C34.1555 52.9689 30.6888 53.6685 26.9999 53.6667Z" />
</svg>
