<svg viewBox="0 0 54 46" xmlns="http://www.w3.org/2000/svg">
<path fill-rule="evenodd" clip-rule="evenodd" d="M18.8986 41.2507C11.0506 35.2374 0.333252 25.304 0.333252 15.912C0.333252 0.221362 14.9999 -5.63731 26.9999 6.48003C38.9999 -5.63731 53.6666 0.221361 53.6666 15.9094C53.6666 25.304 42.9466 35.2374 35.1013 41.2507C31.5493 43.9707 29.7733 45.3334 26.9999 45.3334C24.2266 45.3334 22.4506 43.9734 18.8986 41.2507ZM38.9999 8.66669C39.5304 8.66669 40.0391 8.87741 40.4141 9.25248C40.7892 9.62755 40.9999 10.1363 40.9999 10.6667V14H44.3333C44.8637 14 45.3724 14.2107 45.7475 14.5858C46.1225 14.9609 46.3333 15.4696 46.3333 16C46.3333 16.5305 46.1225 17.0392 45.7475 17.4142C45.3724 17.7893 44.8637 18 44.3333 18H40.9999V21.3334C40.9999 21.8638 40.7892 22.3725 40.4141 22.7476C40.0391 23.1226 39.5304 23.3334 38.9999 23.3334C38.4695 23.3334 37.9608 23.1226 37.5857 22.7476C37.2106 22.3725 36.9999 21.8638 36.9999 21.3334V18H33.6666C33.1362 18 32.6274 17.7893 32.2524 17.4142C31.8773 17.0392 31.6666 16.5305 31.6666 16C31.6666 15.4696 31.8773 14.9609 32.2524 14.5858C32.6274 14.2107 33.1362 14 33.6666 14H36.9999V10.6667C36.9999 10.1363 37.2106 9.62755 37.5857 9.25248C37.9608 8.87741 38.4695 8.66669 38.9999 8.66669Z" />
</svg>
