<svg viewBox="0 0 56 64" xmlns="http://www.w3.org/2000/svg">
<path d="M28 64C30.1217 64 32.1566 63.1571 33.6569 61.6568C35.1571 60.1566 36 58.1217 36 56H20C20 58.1217 20.8429 60.1566 22.3431 61.6568C23.8434 63.1571 25.8783 64 28 64ZM31.98 4.39599C32.0358 3.83981 31.9745 3.27809 31.7999 2.74708C31.6253 2.21607 31.3413 1.72755 30.9663 1.31302C30.5913 0.898496 30.1336 0.567168 29.6227 0.340408C29.1118 0.113648 28.559 -0.00350952 28 -0.00350952C27.441 -0.00350952 26.8882 0.113648 26.3773 0.340408C25.8664 0.567168 25.4087 0.898496 25.0337 1.31302C24.6587 1.72755 24.3747 2.21607 24.2001 2.74708C24.0255 3.27809 23.9642 3.83981 24.02 4.39599C19.4989 5.31559 15.4345 7.76943 12.5151 11.342C9.59563 14.9146 8.00058 19.3863 8 24C8 28.392 6 48 0 52H56C50 48 48 28.392 48 24C48 14.32 41.12 6.23999 31.98 4.39599Z" />
</svg>
