<svg width="24" height="24" viewBox="0 0 24 24" fill="none" xmlns="http://www.w3.org/2000/svg">
<path d="M16.2375 2.5755C16.578 2.23497 16.9822 1.96483 17.4271 1.78051C17.872 1.5962 18.3488 1.50132 18.8304 1.50128C19.312 1.50125 19.7888 1.59606 20.2337 1.78031C20.6786 1.96456 21.0829 2.23464 21.4234 2.57512C21.764 2.91561 22.0341 3.31983 22.2184 3.76472C22.4027 4.2096 22.4976 4.68643 22.4976 5.16798C22.4977 5.64954 22.4029 6.12638 22.2186 6.57129C22.0344 7.0162 21.7643 7.42046 21.4238 7.761L20.7473 8.43675L15.5618 3.25125L16.2375 2.5755ZM14.5013 4.3125L3.26779 15.5475C2.88956 15.9255 2.6286 16.4047 2.51629 16.9275L1.51654 21.5925C1.49018 21.715 1.49493 21.8422 1.53037 21.9624C1.56581 22.0826 1.63081 22.192 1.71943 22.2806C1.80804 22.3692 1.91745 22.4342 2.03765 22.4697C2.15786 22.5051 2.28503 22.5099 2.40754 22.4835L7.07254 21.4837C7.59534 21.3714 8.07455 21.1105 8.45254 20.7322L19.6875 9.49725L14.5013 4.3125Z" fill="#000"/>
</svg>
