<svg width="240" height="240" viewBox="0 0 240 240" fill="none" xmlns="http://www.w3.org/2000/svg">
<g clip-path="url(#clip0_114_3)">
<path fill-rule="evenodd" clip-rule="evenodd" d="M120 20C64.77 20 20 64.77 20 120C20 175.23 64.77 220 120 220C175.23 220 220 175.23 220 120C220 64.77 175.23 20 120 20ZM85 95C85 90.4037 85.9053 85.8525 87.6642 81.6061C89.4231 77.3597 92.0012 73.5013 95.2513 70.2513C98.5013 67.0012 102.36 64.4231 106.606 62.6642C110.852 60.9053 115.404 60 120 60C124.596 60 129.148 60.9053 133.394 62.6642C137.64 64.4231 141.499 67.0012 144.749 70.2513C147.999 73.5013 150.577 77.3597 152.336 81.6061C154.095 85.8525 155 90.4037 155 95C155 104.283 151.313 113.185 144.749 119.749C138.185 126.313 129.283 130 120 130C110.717 130 101.815 126.313 95.2513 119.749C88.6875 113.185 85 104.283 85 95ZM182.58 169.84C175.094 179.256 165.578 186.86 154.742 192.082C143.905 197.305 132.029 200.011 120 200C107.971 200.011 96.0946 197.305 85.2583 192.082C74.422 186.86 64.9056 179.256 57.42 169.84C73.63 158.21 95.75 150 120 150C144.25 150 166.37 158.21 182.58 169.84Z" fill="#8A8A8A"/>
</g>
<defs>
<clipPath id="clip0_114_3">
<rect width="240" height="240" fill="white"/>
</clipPath>
</defs>
</svg>
