<svg viewBox="0 0 54 54" fill="none" xmlns="http://www.w3.org/2000/svg">
<path d="M27.0027 19C24.881 19 22.8462 19.8429 21.3459 21.3432C19.8456 22.8434 19.0027 24.8783 19.0027 27C19.0027 29.1217 19.8456 31.1566 21.3459 32.6569C22.8462 34.1572 24.881 35 27.0027 35C29.1245 35 31.1593 34.1572 32.6596 32.6569C34.1599 31.1566 35.0027 29.1217 35.0027 27C35.0027 24.8783 34.1599 22.8434 32.6596 21.3432C31.1593 19.8429 29.1245 19 27.0027 19ZM27.0027 13.6667C30.5389 13.6667 33.9303 15.0714 36.4308 17.5719C38.9313 20.0724 40.3361 23.4638 40.3361 27C40.3361 30.5362 38.9313 33.9276 36.4308 36.4281C33.9303 38.9286 30.5389 40.3333 27.0027 40.3333C23.4665 40.3333 20.0751 38.9286 17.5746 36.4281C15.0742 33.9276 13.6694 30.5362 13.6694 27C13.6694 23.4638 15.0742 20.0724 17.5746 17.5719C20.0751 15.0714 23.4665 13.6667 27.0027 13.6667ZM44.3361 13C44.3361 13.8841 43.9849 14.7319 43.3598 15.357C42.7346 15.9822 41.8868 16.3333 41.0027 16.3333C40.1187 16.3333 39.2708 15.9822 38.6457 15.357C38.0206 14.7319 37.6694 13.8841 37.6694 13C37.6694 12.116 38.0206 11.2681 38.6457 10.643C39.2708 10.0179 40.1187 9.66668 41.0027 9.66668C41.8868 9.66668 42.7346 10.0179 43.3598 10.643C43.9849 11.2681 44.3361 12.116 44.3361 13ZM27.0027 5.66668C20.4054 5.66668 19.3281 5.68534 16.2587 5.82134C14.1681 5.92001 12.7654 6.20001 11.4641 6.70668C10.375 7.10651 9.39049 7.74737 8.58406 8.58134C7.74941 9.38774 7.10767 10.3722 6.70673 11.4613C6.20006 12.768 5.92006 14.168 5.82406 16.256C5.68539 19.2 5.66673 20.2293 5.66673 27C5.66673 33.6 5.68539 34.6747 5.82139 37.744C5.92006 39.832 6.20006 41.2373 6.70406 42.536C7.15739 43.696 7.69073 44.5307 8.57606 45.416C9.47473 46.312 10.3094 46.848 11.4561 47.2907C12.7734 47.8 14.1761 48.0827 16.2561 48.1787C19.2001 48.3173 20.2294 48.3333 27.0001 48.3333C33.6001 48.3333 34.6747 48.3147 37.7441 48.1787C39.8294 48.08 41.2321 47.8 42.5361 47.296C43.6241 46.8942 44.6082 46.2536 45.4161 45.4213C46.3147 44.5253 46.8507 43.6907 47.2934 42.5413C47.8001 41.2293 48.0827 39.8267 48.1787 37.7413C48.3174 34.8 48.3334 33.768 48.3334 27C48.3334 20.4027 48.3147 19.3253 48.1787 16.256C48.0801 14.1707 47.7974 12.7627 47.2934 11.4613C46.8914 10.3734 46.2509 9.3893 45.4187 8.58134C44.6127 7.74627 43.6281 7.10446 42.5387 6.70401C41.2321 6.19734 39.8294 5.91734 37.7441 5.82134C34.8027 5.68268 33.7761 5.66668 27.0027 5.66668ZM27.0027 0.333344C34.2481 0.333344 35.1521 0.36001 37.9974 0.493343C40.8347 0.626677 42.7707 1.07201 44.4694 1.73334C46.2294 2.41068 47.7121 3.32801 49.1947 4.80801C50.5507 6.14107 51.5999 7.75358 52.2694 9.53334C52.9281 11.232 53.3761 13.168 53.5094 16.008C53.6347 18.8507 53.6694 19.7547 53.6694 27C53.6694 34.2453 53.6427 35.1493 53.5094 37.992C53.3761 40.832 52.9281 42.7653 52.2694 44.4667C51.6018 46.2474 50.5523 47.8603 49.1947 49.192C47.8613 50.5475 46.2489 51.5967 44.4694 52.2667C42.7707 52.9253 40.8347 53.3733 37.9974 53.5067C35.1521 53.632 34.2481 53.6667 27.0027 53.6667C19.7574 53.6667 18.8534 53.64 16.0081 53.5067C13.1707 53.3733 11.2374 52.9253 9.53606 52.2667C7.7556 51.5986 6.1428 50.5492 4.81073 49.192C3.45454 47.8591 2.40529 46.2466 1.73606 44.4667C1.07473 42.768 0.629393 40.832 0.49606 37.992C0.36806 35.1493 0.33606 34.2453 0.33606 27C0.33606 19.7547 0.362727 18.8507 0.49606 16.008C0.629393 13.1653 1.07473 11.2347 1.73606 9.53334C2.40336 7.75249 3.45287 6.13953 4.81073 4.80801C6.14318 3.45129 7.75587 2.40196 9.53606 1.73334C11.2347 1.07201 13.1681 0.626677 16.0081 0.493343C18.8534 0.36801 19.7574 0.333344 27.0027 0.333344Z" fill="#8A8A8A"/>
</svg>
