<?xml version="1.0" standalone="no"?>
<!DOCTYPE svg PUBLIC "-//W3C//DTD SVG 20010904//EN"
 "http://www.w3.org/TR/2001/REC-SVG-20010904/DTD/svg10.dtd">
<svg version="1.0" xmlns="http://www.w3.org/2000/svg"
 width="546.000000pt" height="457.000000pt" viewBox="0 0 546.000000 457.000000"
 preserveAspectRatio="xMidYMid meet">

<g transform="translate(0.000000,457.000000) scale(0.100000,-0.100000)"
fill="#000000" stroke="none">
<path d="M406 4464 c-103 -28 -204 -110 -260 -210 -93 -167 -67 -369 67 -503
67 -68 120 -99 210 -122 69 -18 152 -19 2307 -19 2228 0 2236 0 2310 21 90 24
139 52 203 114 79 76 127 193 127 309 0 103 -45 207 -122 286 -64 65 -117 99
-193 122 -57 17 -158 18 -2330 17 -1854 -1 -2279 -4 -2319 -15z"/>
<path d="M446 2709 c-115 -19 -251 -122 -307 -231 -84 -165 -58 -344 69 -481
56 -59 105 -92 181 -119 56 -20 74 -20 2341 -20 2259 0 2286 0 2341 20 75 27
125 59 181 119 77 83 118 188 118 301 -1 191 -171 381 -370 412 -79 12 -4480
12 -4554 -1z"/>
<path d="M433 945 c-203 -55 -343 -227 -343 -420 0 -66 18 -136 52 -205 31
-62 127 -156 185 -181 117 -51 -13 -49 2398 -49 2456 0 2322 -3 2423 56 106
62 181 161 206 274 36 157 5 274 -104 393 -60 66 -92 87 -180 119 l-65 23
-2260 2 c-1921 2 -2268 0 -2312 -12z"/>
</g>
</svg>
