<svg viewBox="0 0 55 42" xmlns="http://www.w3.org/2000/svg">
<path d="M0 2C0 1.46957 0.210714 0.96086 0.585787 0.585787C0.96086 0.210714 1.46957 0 2 0H46C46.5304 0 47.0391 0.210714 47.4142 0.585787C47.7893 0.96086 48 1.46957 48 2C48 2.53043 47.7893 3.03914 47.4142 3.41421C47.0391 3.78929 46.5304 4 46 4H2C1.46957 4 0.96086 3.78929 0.585787 3.41421C0.210714 3.03914 0 2.53043 0 2ZM2 20H32C32.5304 20 33.0391 19.7893 33.4142 19.4142C33.7893 19.0391 34 18.5304 34 18C34 17.4696 33.7893 16.9609 33.4142 16.5858C33.0391 16.2107 32.5304 16 32 16H2C1.46957 16 0.96086 16.2107 0.585787 16.5858C0.210714 16.9609 0 17.4696 0 18C0 18.5304 0.210714 19.0391 0.585787 19.4142C0.96086 19.7893 1.46957 20 2 20ZM20 32H2C1.46957 32 0.96086 32.2107 0.585787 32.5858C0.210714 32.9609 0 33.4696 0 34C0 34.5304 0.210714 35.0391 0.585787 35.4142C0.96086 35.7893 1.46957 36 2 36H20C20.5304 36 21.0391 35.7893 21.4142 35.4142C21.7893 35.0391 22 34.5304 22 34C22 33.4696 21.7893 32.9609 21.4142 32.5858C21.0391 32.2107 20.5304 32 20 32ZM52.575 15.085L42.575 12.085C42.2764 11.9954 41.961 11.9768 41.6539 12.0307C41.3469 12.0847 41.0567 12.2097 40.8065 12.3957C40.5563 12.5818 40.3531 12.8237 40.2131 13.1023C40.0731 13.3808 40.0001 13.6882 40 14V27.0775C38.4747 26.1968 36.7013 25.8442 34.9551 26.0742C33.2089 26.3043 31.5874 27.1042 30.3421 28.3499C29.0969 29.5955 28.2976 31.2173 28.0682 32.9636C27.8387 34.7099 28.192 36.4831 29.0732 38.0082C29.9544 39.5332 31.3143 40.7248 32.9418 41.3981C34.5694 42.0714 36.3736 42.1888 38.0747 41.732C39.7757 41.2752 41.2785 40.2698 42.3499 38.8718C43.4212 37.4738 44.0013 35.7613 44 34V16.6875L51.425 18.915C51.6784 18.9976 51.9458 19.0286 52.2114 19.0063C52.4771 18.9841 52.7355 18.909 52.9717 18.7854C53.2079 18.6618 53.417 18.4922 53.5867 18.2867C53.7564 18.0812 53.8833 17.8438 53.9599 17.5885C54.0366 17.3332 54.0614 17.0652 54.033 16.8001C54.0046 16.5351 53.9235 16.2784 53.7945 16.0452C53.6654 15.812 53.4911 15.6069 53.2817 15.442C53.0723 15.2771 52.832 15.1557 52.575 15.085Z" />
</svg>
