<svg viewBox="0 0 64 64" xmlns="http://www.w3.org/2000/svg">
<path d="M32 64C23.5131 64 15.3737 60.6286 9.37258 54.6274C3.37142 48.6263 0 40.4869 0 32C0 23.5131 3.37142 15.3737 9.37258 9.37258C15.3737 3.37142 23.5131 0 32 0C40.4869 0 48.6263 3.37142 54.6274 9.37258C60.6286 15.3737 64 23.5131 64 32C64 40.4869 60.6286 48.6263 54.6274 54.6274C48.6263 60.6286 40.4869 64 32 64ZM35.388 31.42C37.605 30.6224 39.4695 29.0682 40.6532 27.031C41.8369 24.9939 42.264 22.6044 41.8592 20.2833C41.4543 17.9623 40.2436 15.8585 38.4401 14.3423C36.6367 12.8262 34.3561 11.9949 32 11.9949C29.6439 11.9949 27.3633 12.8262 25.5599 14.3423C23.7564 15.8585 22.5457 17.9623 22.1408 20.2833C21.736 22.6044 22.1631 24.9939 23.3468 27.031C24.5305 29.0682 26.395 30.6224 28.612 31.42C21.884 33.044 16 39.1 16 44C16 45.58 16.58 47.98 20 47.98H44C47.42 47.98 48 45.58 48 44C48 39.104 42.12 33.04 35.388 31.42Z" />
</svg>
