<svg viewBox="0 0 60 64" xmlns="http://www.w3.org/2000/svg">
<path d="M60 34.064C59.9991 39.6595 58.4334 45.1433 55.4796 49.8957C52.5258 54.648 48.3018 58.4796 43.2849 60.9575C38.2679 63.4353 32.6579 64.4607 27.0888 63.9177C21.5197 63.3747 16.2134 61.285 11.7696 57.8847C7.32573 54.4844 3.92141 49.9091 1.94127 44.6757C-0.0388633 39.4422 -0.515886 33.7593 0.564103 28.269C1.64409 22.7787 4.23805 17.6999 8.05287 13.6063C11.8677 9.51282 16.7513 6.56779 22.152 5.104C21.9809 4.50822 21.9506 3.88083 22.0636 3.27134C22.1765 2.66186 22.4295 2.08695 22.8027 1.592C23.1758 1.09704 23.6589 0.695585 24.2138 0.419304C24.7687 0.143023 25.3801 -0.00052079 26 1.41975e-06H34C34.6199 -0.00052079 35.2314 0.143023 35.7862 0.419304C36.3411 0.695585 36.8242 1.09704 37.1974 1.592C37.5705 2.08695 37.8235 2.66186 37.9365 3.27134C38.0494 3.88083 38.0191 4.50822 37.848 5.104C44.2075 6.82977 49.8223 10.6006 53.8258 15.8345C57.8294 21.0684 59.999 27.4745 60 34.064ZM45.56 18.444L25.76 29.756L14.44 49.56L34.24 38.248L45.552 18.448L45.56 18.444Z" />
</svg>
